<mxfile host="app.diagrams.net" modified="2020-04-03T10:31:45.917Z" agent="5.0 (Macintosh; Intel Mac OS X 10_15_3) AppleWebKit/605.1.15 (KHTML, like Gecko) Version/13.0.5 Safari/605.1.15" etag="YFInYWMmPa2YVONjKclP" version="12.9.5" type="github">
  <diagram id="naz7NzOcKD-QqL_7P5jK" name="Page-1">
    <mxGraphModel dx="946" dy="696" grid="1" gridSize="10" guides="1" tooltips="1" connect="1" arrows="1" fold="1" page="1" pageScale="1" pageWidth="850" pageHeight="1100" math="0" shadow="0">
      <root>
        <mxCell id="0" />
        <mxCell id="1" parent="0" />
        <mxCell id="hdsZDOFmJW38S7iMikZD-3" value="" style="rounded=0;whiteSpace=wrap;html=1;" parent="1" vertex="1">
          <mxGeometry x="180" y="90" width="440" height="650" as="geometry" />
        </mxCell>
        <mxCell id="hdsZDOFmJW38S7iMikZD-5" value="Administrativt" style="text;html=1;strokeColor=none;fillColor=none;align=center;verticalAlign=middle;whiteSpace=wrap;rounded=0;" parent="1" vertex="1">
          <mxGeometry x="350" y="70" width="40" height="20" as="geometry" />
        </mxCell>
        <mxCell id="hdsZDOFmJW38S7iMikZD-6" value="Program" style="text;html=1;strokeColor=none;fillColor=none;align=center;verticalAlign=middle;whiteSpace=wrap;rounded=0;" parent="1" vertex="1">
          <mxGeometry x="420" y="70" width="40" height="20" as="geometry" />
        </mxCell>
        <mxCell id="hdsZDOFmJW38S7iMikZD-7" value="StudentTeach" style="text;html=1;strokeColor=none;fillColor=none;align=center;verticalAlign=middle;whiteSpace=wrap;rounded=0;" parent="1" vertex="1">
          <mxGeometry x="380" y="90" width="40" height="20" as="geometry" />
        </mxCell>
        <mxCell id="Q4LFnAZzLEwqTKA5tDAf-13" style="edgeStyle=orthogonalEdgeStyle;rounded=0;orthogonalLoop=1;jettySize=auto;html=1;exitX=1;exitY=0.3333333333333333;exitDx=0;exitDy=0;exitPerimeter=0;entryX=0.075;entryY=0.283;entryDx=0;entryDy=0;endArrow=none;endFill=0;strokeColor=#000000;entryPerimeter=0;" edge="1" parent="1" source="hdsZDOFmJW38S7iMikZD-9" target="hdsZDOFmJW38S7iMikZD-17">
          <mxGeometry relative="1" as="geometry">
            <Array as="points" />
          </mxGeometry>
        </mxCell>
        <mxCell id="Q4LFnAZzLEwqTKA5tDAf-14" style="edgeStyle=orthogonalEdgeStyle;rounded=0;orthogonalLoop=1;jettySize=auto;html=1;exitX=1;exitY=0.3333333333333333;exitDx=0;exitDy=0;exitPerimeter=0;entryX=0;entryY=0.5;entryDx=0;entryDy=0;endArrow=none;endFill=0;strokeColor=#000000;" edge="1" parent="1" source="hdsZDOFmJW38S7iMikZD-9" target="Q4LFnAZzLEwqTKA5tDAf-2">
          <mxGeometry relative="1" as="geometry">
            <Array as="points">
              <mxPoint x="240" y="487" />
              <mxPoint x="240" y="570" />
            </Array>
          </mxGeometry>
        </mxCell>
        <mxCell id="Q4LFnAZzLEwqTKA5tDAf-42" style="edgeStyle=orthogonalEdgeStyle;rounded=0;orthogonalLoop=1;jettySize=auto;html=1;exitX=1;exitY=0.3333333333333333;exitDx=0;exitDy=0;exitPerimeter=0;entryX=0;entryY=0.5;entryDx=0;entryDy=0;endArrow=none;endFill=0;strokeColor=#000000;" edge="1" parent="1" source="hdsZDOFmJW38S7iMikZD-9" target="Q4LFnAZzLEwqTKA5tDAf-11">
          <mxGeometry relative="1" as="geometry">
            <Array as="points">
              <mxPoint x="170" y="487" />
              <mxPoint x="170" y="690" />
            </Array>
          </mxGeometry>
        </mxCell>
        <mxCell id="hdsZDOFmJW38S7iMikZD-9" value="Student" style="shape=umlActor;verticalLabelPosition=bottom;labelBackgroundColor=#ffffff;verticalAlign=top;html=1;outlineConnect=0;" parent="1" vertex="1">
          <mxGeometry x="110" y="450" width="50" height="110" as="geometry" />
        </mxCell>
        <mxCell id="hdsZDOFmJW38S7iMikZD-10" value="Teacher" style="shape=umlActor;verticalLabelPosition=bottom;labelBackgroundColor=#ffffff;verticalAlign=top;html=1;outlineConnect=0;" parent="1" vertex="1">
          <mxGeometry x="110" y="170" width="50" height="110" as="geometry" />
        </mxCell>
        <mxCell id="hdsZDOFmJW38S7iMikZD-37" style="edgeStyle=orthogonalEdgeStyle;rounded=0;orthogonalLoop=1;jettySize=auto;html=1;exitX=0;exitY=0.3333333333333333;exitDx=0;exitDy=0;exitPerimeter=0;entryX=1;entryY=0.5;entryDx=0;entryDy=0;endArrow=none;endFill=0;" parent="1" source="hdsZDOFmJW38S7iMikZD-11" target="hdsZDOFmJW38S7iMikZD-21" edge="1">
          <mxGeometry relative="1" as="geometry">
            <Array as="points">
              <mxPoint x="600" y="358" />
              <mxPoint x="600" y="420" />
            </Array>
          </mxGeometry>
        </mxCell>
        <mxCell id="hdsZDOFmJW38S7iMikZD-38" style="edgeStyle=orthogonalEdgeStyle;rounded=0;orthogonalLoop=1;jettySize=auto;html=1;exitX=0;exitY=0.3333333333333333;exitDx=0;exitDy=0;exitPerimeter=0;entryX=1;entryY=0.5;entryDx=0;entryDy=0;endArrow=none;endFill=0;" parent="1" source="hdsZDOFmJW38S7iMikZD-11" target="hdsZDOFmJW38S7iMikZD-24" edge="1">
          <mxGeometry relative="1" as="geometry">
            <Array as="points">
              <mxPoint x="600" y="358" />
              <mxPoint x="600" y="500" />
            </Array>
          </mxGeometry>
        </mxCell>
        <mxCell id="hdsZDOFmJW38S7iMikZD-39" style="edgeStyle=orthogonalEdgeStyle;rounded=0;orthogonalLoop=1;jettySize=auto;html=1;exitX=0;exitY=0.3333333333333333;exitDx=0;exitDy=0;exitPerimeter=0;entryX=1;entryY=0.5;entryDx=0;entryDy=0;endArrow=none;endFill=0;" parent="1" source="hdsZDOFmJW38S7iMikZD-11" target="hdsZDOFmJW38S7iMikZD-25" edge="1">
          <mxGeometry relative="1" as="geometry">
            <Array as="points">
              <mxPoint x="600" y="358" />
              <mxPoint x="600" y="580" />
            </Array>
          </mxGeometry>
        </mxCell>
        <mxCell id="hdsZDOFmJW38S7iMikZD-11" value="Admin" style="shape=umlActor;verticalLabelPosition=bottom;labelBackgroundColor=#ffffff;verticalAlign=top;html=1;outlineConnect=0;" parent="1" vertex="1">
          <mxGeometry x="650" y="321.5" width="50" height="110" as="geometry" />
        </mxCell>
        <mxCell id="hdsZDOFmJW38S7iMikZD-49" style="edgeStyle=orthogonalEdgeStyle;orthogonalLoop=1;jettySize=auto;html=1;exitX=0.7;exitY=0.029;exitDx=0;exitDy=0;entryX=-0.012;entryY=0.642;entryDx=0;entryDy=0;entryPerimeter=0;endArrow=open;endFill=0;strokeColor=#000000;rounded=1;dashed=1;exitPerimeter=0;" parent="1" source="hdsZDOFmJW38S7iMikZD-16" target="hdsZDOFmJW38S7iMikZD-45" edge="1">
          <mxGeometry relative="1" as="geometry">
            <Array as="points">
              <mxPoint x="363" y="322" />
              <mxPoint x="390" y="322" />
              <mxPoint x="390" y="259" />
            </Array>
          </mxGeometry>
        </mxCell>
        <mxCell id="Q4LFnAZzLEwqTKA5tDAf-12" style="edgeStyle=orthogonalEdgeStyle;rounded=0;orthogonalLoop=1;jettySize=auto;html=1;exitX=1;exitY=0.5;exitDx=0;exitDy=0;endArrow=none;endFill=0;strokeColor=#000000;" edge="1" parent="1" source="hdsZDOFmJW38S7iMikZD-16">
          <mxGeometry relative="1" as="geometry">
            <mxPoint x="600" y="360" as="targetPoint" />
            <Array as="points">
              <mxPoint x="390" y="370" />
              <mxPoint x="600" y="370" />
            </Array>
          </mxGeometry>
        </mxCell>
        <mxCell id="Q4LFnAZzLEwqTKA5tDAf-17" style="edgeStyle=orthogonalEdgeStyle;rounded=0;orthogonalLoop=1;jettySize=auto;html=1;exitX=0.5;exitY=1;exitDx=0;exitDy=0;entryX=1;entryY=0.3333333333333333;entryDx=0;entryDy=0;entryPerimeter=0;endArrow=none;endFill=0;strokeColor=#000000;" edge="1" parent="1" source="hdsZDOFmJW38S7iMikZD-16" target="hdsZDOFmJW38S7iMikZD-9">
          <mxGeometry relative="1" as="geometry">
            <Array as="points">
              <mxPoint x="350" y="450" />
              <mxPoint x="240" y="450" />
              <mxPoint x="240" y="487" />
            </Array>
          </mxGeometry>
        </mxCell>
        <mxCell id="Q4LFnAZzLEwqTKA5tDAf-41" style="edgeStyle=orthogonalEdgeStyle;rounded=0;orthogonalLoop=1;jettySize=auto;html=1;exitX=0.5;exitY=0;exitDx=0;exitDy=0;entryX=0.5;entryY=0;entryDx=0;entryDy=0;endArrow=none;endFill=0;strokeColor=#000000;" edge="1" parent="1" source="hdsZDOFmJW38S7iMikZD-16" target="Q4LFnAZzLEwqTKA5tDAf-5">
          <mxGeometry relative="1" as="geometry" />
        </mxCell>
        <mxCell id="hdsZDOFmJW38S7iMikZD-16" value="Login" style="ellipse;whiteSpace=wrap;html=1;" parent="1" vertex="1">
          <mxGeometry x="300" y="340" width="90" height="69.5" as="geometry" />
        </mxCell>
        <mxCell id="hdsZDOFmJW38S7iMikZD-17" value="Tilmelde sig lecture" style="ellipse;whiteSpace=wrap;html=1;" parent="1" vertex="1">
          <mxGeometry x="270" y="470" width="80" height="60" as="geometry" />
        </mxCell>
        <mxCell id="Q4LFnAZzLEwqTKA5tDAf-19" style="edgeStyle=orthogonalEdgeStyle;rounded=0;orthogonalLoop=1;jettySize=auto;html=1;exitX=0;exitY=0.5;exitDx=0;exitDy=0;entryX=1;entryY=0.3333333333333333;entryDx=0;entryDy=0;entryPerimeter=0;endArrow=none;endFill=0;strokeColor=#000000;" edge="1" parent="1" source="hdsZDOFmJW38S7iMikZD-19" target="hdsZDOFmJW38S7iMikZD-10">
          <mxGeometry relative="1" as="geometry" />
        </mxCell>
        <mxCell id="hdsZDOFmJW38S7iMikZD-19" value="Oprette lecture" style="ellipse;whiteSpace=wrap;html=1;" parent="1" vertex="1">
          <mxGeometry x="270" y="100" width="80" height="60" as="geometry" />
        </mxCell>
        <mxCell id="Q4LFnAZzLEwqTKA5tDAf-20" style="edgeStyle=orthogonalEdgeStyle;rounded=0;orthogonalLoop=1;jettySize=auto;html=1;exitX=0;exitY=0.5;exitDx=0;exitDy=0;entryX=1;entryY=0.3333333333333333;entryDx=0;entryDy=0;entryPerimeter=0;endArrow=none;endFill=0;strokeColor=#000000;" edge="1" parent="1" source="hdsZDOFmJW38S7iMikZD-20" target="hdsZDOFmJW38S7iMikZD-10">
          <mxGeometry relative="1" as="geometry">
            <Array as="points">
              <mxPoint x="270" y="207" />
            </Array>
          </mxGeometry>
        </mxCell>
        <mxCell id="hdsZDOFmJW38S7iMikZD-20" value="Fjerne lecture&amp;nbsp;" style="ellipse;whiteSpace=wrap;html=1;" parent="1" vertex="1">
          <mxGeometry x="270" y="170" width="80" height="60" as="geometry" />
        </mxCell>
        <mxCell id="hdsZDOFmJW38S7iMikZD-21" value="Slette en teacher&lt;br&gt;" style="ellipse;whiteSpace=wrap;html=1;" parent="1" vertex="1">
          <mxGeometry x="425" y="390" width="80" height="60" as="geometry" />
        </mxCell>
        <mxCell id="Q4LFnAZzLEwqTKA5tDAf-26" style="edgeStyle=orthogonalEdgeStyle;rounded=0;orthogonalLoop=1;jettySize=auto;html=1;exitX=0;exitY=0.5;exitDx=0;exitDy=0;entryX=1;entryY=0.3333333333333333;entryDx=0;entryDy=0;entryPerimeter=0;endArrow=none;endFill=0;strokeColor=#000000;" edge="1" parent="1" source="hdsZDOFmJW38S7iMikZD-23" target="hdsZDOFmJW38S7iMikZD-10">
          <mxGeometry relative="1" as="geometry" />
        </mxCell>
        <mxCell id="hdsZDOFmJW38S7iMikZD-23" value="Se informationer om students" style="ellipse;whiteSpace=wrap;html=1;" parent="1" vertex="1">
          <mxGeometry x="270" y="240" width="80" height="65" as="geometry" />
        </mxCell>
        <mxCell id="hdsZDOFmJW38S7iMikZD-24" value="Slette en student&lt;br&gt;" style="ellipse;whiteSpace=wrap;html=1;" parent="1" vertex="1">
          <mxGeometry x="425" y="470" width="80" height="60" as="geometry" />
        </mxCell>
        <mxCell id="hdsZDOFmJW38S7iMikZD-25" value="Slet lecture" style="ellipse;whiteSpace=wrap;html=1;" parent="1" vertex="1">
          <mxGeometry x="425" y="550" width="80" height="60" as="geometry" />
        </mxCell>
        <mxCell id="hdsZDOFmJW38S7iMikZD-45" value="Check for korrekt login" style="ellipse;whiteSpace=wrap;html=1;" parent="1" vertex="1">
          <mxGeometry x="440" y="220" width="80" height="60" as="geometry" />
        </mxCell>
        <mxCell id="hdsZDOFmJW38S7iMikZD-50" style="edgeStyle=orthogonalEdgeStyle;rounded=1;orthogonalLoop=1;jettySize=auto;html=1;exitX=0;exitY=0.5;exitDx=0;exitDy=0;entryX=1;entryY=0;entryDx=0;entryDy=0;dashed=1;endArrow=open;endFill=0;strokeColor=#000000;" parent="1" source="hdsZDOFmJW38S7iMikZD-46" target="hdsZDOFmJW38S7iMikZD-16" edge="1">
          <mxGeometry relative="1" as="geometry" />
        </mxCell>
        <mxCell id="hdsZDOFmJW38S7iMikZD-46" value="Fejl ved login" style="ellipse;whiteSpace=wrap;html=1;" parent="1" vertex="1">
          <mxGeometry x="470" y="290" width="80" height="60" as="geometry" />
        </mxCell>
        <mxCell id="Q4LFnAZzLEwqTKA5tDAf-2" value="Framelde sig lecture" style="ellipse;whiteSpace=wrap;html=1;" vertex="1" parent="1">
          <mxGeometry x="270" y="540" width="80" height="60" as="geometry" />
        </mxCell>
        <mxCell id="Q4LFnAZzLEwqTKA5tDAf-18" style="edgeStyle=orthogonalEdgeStyle;rounded=0;orthogonalLoop=1;jettySize=auto;html=1;exitX=0.5;exitY=1;exitDx=0;exitDy=0;endArrow=none;endFill=0;strokeColor=#000000;" edge="1" parent="1" source="Q4LFnAZzLEwqTKA5tDAf-5">
          <mxGeometry relative="1" as="geometry">
            <mxPoint x="240" y="470" as="targetPoint" />
            <Array as="points">
              <mxPoint x="240" y="410" />
            </Array>
          </mxGeometry>
        </mxCell>
        <mxCell id="Q4LFnAZzLEwqTKA5tDAf-32" style="edgeStyle=orthogonalEdgeStyle;rounded=0;orthogonalLoop=1;jettySize=auto;html=1;exitX=0.5;exitY=0;exitDx=0;exitDy=0;entryX=0;entryY=0.5;entryDx=0;entryDy=0;endArrow=none;endFill=0;strokeColor=#000000;" edge="1" parent="1" source="Q4LFnAZzLEwqTKA5tDAf-5" target="hdsZDOFmJW38S7iMikZD-23">
          <mxGeometry relative="1" as="geometry" />
        </mxCell>
        <mxCell id="Q4LFnAZzLEwqTKA5tDAf-5" value="Registrering&amp;nbsp;" style="ellipse;whiteSpace=wrap;html=1;" vertex="1" parent="1">
          <mxGeometry x="190" y="340" width="90" height="69.5" as="geometry" />
        </mxCell>
        <mxCell id="Q4LFnAZzLEwqTKA5tDAf-9" value="RELEASE1&amp;nbsp;" style="text;html=1;strokeColor=none;fillColor=none;align=center;verticalAlign=middle;whiteSpace=wrap;rounded=0;" vertex="1" parent="1">
          <mxGeometry x="560" y="615" width="40" height="20" as="geometry" />
        </mxCell>
        <mxCell id="Q4LFnAZzLEwqTKA5tDAf-10" value="RELEASE2" style="text;html=1;strokeColor=none;fillColor=none;align=center;verticalAlign=middle;whiteSpace=wrap;rounded=0;" vertex="1" parent="1">
          <mxGeometry x="560" y="710" width="40" height="20" as="geometry" />
        </mxCell>
        <mxCell id="Q4LFnAZzLEwqTKA5tDAf-11" value="Skal kunne betale for lecture" style="ellipse;whiteSpace=wrap;html=1;" vertex="1" parent="1">
          <mxGeometry x="260" y="660" width="80" height="60" as="geometry" />
        </mxCell>
        <mxCell id="Q4LFnAZzLEwqTKA5tDAf-44" value="" style="rounded=0;whiteSpace=wrap;html=1;gradientColor=#ffffff;fillColor=none;" vertex="1" parent="1">
          <mxGeometry x="180" y="635" width="440" height="105" as="geometry" />
        </mxCell>
      </root>
    </mxGraphModel>
  </diagram>
</mxfile>
